<svg width="29" height="29" viewBox="0 0 29 29" fill="none" xmlns="http://www.w3.org/2000/svg">
<path fill-rule="evenodd" clip-rule="evenodd" d="M27.0885 1.2448C25.4287 -0.414926 22.7379 -0.41494 21.0782 1.2448L18.6984 3.62451L7.49826 14.8246C7.3167 15.0062 7.18791 15.2337 7.12563 15.4828L5.70897 21.1495C5.58827 21.6323 5.72972 22.143 6.08159 22.4947C6.43347 22.8466 6.94416 22.9881 7.42693 22.8675L13.0935 21.4508C13.3427 21.3885 13.5701 21.2597 13.7517 21.0781L24.8704 9.95945L27.3316 7.49826C28.9914 5.83854 28.9914 3.14758 27.3316 1.48786L27.0885 1.2448ZM23.0816 3.24826C23.6348 2.69503 24.5318 2.69503 25.0851 3.24826L25.3282 3.49132C25.8814 4.04457 25.8814 4.94156 25.3282 5.4948L23.8881 6.93487L21.6846 4.64527L23.0816 3.24826ZM19.6808 6.6491L21.8842 8.9387L12.0258 18.7972L9.03036 19.5461L9.77919 16.5507L19.6808 6.6491ZM2.83333 8.74306C2.83333 7.96066 3.4676 7.32639 4.25 7.32639H11.3333C12.1158 7.32639 12.75 6.69214 12.75 5.90973C12.75 5.12733 12.1158 4.49306 11.3333 4.49306H4.25C1.9028 4.49306 0 6.39585 0 8.74306V24.3263C0 26.6736 1.9028 28.5763 4.25 28.5763H19.8333C22.1806 28.5763 24.0833 26.6736 24.0833 24.3263V17.243C24.0833 16.4607 23.4491 15.8263 22.6667 15.8263C21.8842 15.8263 21.25 16.4607 21.25 17.243V24.3263C21.25 25.1088 20.6158 25.743 19.8333 25.743H4.25C3.4676 25.743 2.83333 25.1088 2.83333 24.3263V8.74306Z" fill="white"/>
</svg>
