<svg width="27" height="30" viewBox="0 0 27 30" fill="none" xmlns="http://www.w3.org/2000/svg">
<path fill-rule="evenodd" clip-rule="evenodd" d="M10.5576 12.3459C11.4179 12.3459 12.1153 13.0046 12.1153 13.8171V22.644C12.1153 23.4565 11.4179 24.1152 10.5576 24.1152C9.69728 24.1152 8.99988 23.4565 8.99988 22.644V13.8171C8.99988 13.0046 9.69728 12.3459 10.5576 12.3459Z" fill="white"/>
<path fill-rule="evenodd" clip-rule="evenodd" d="M16.4423 12.3459C17.3026 12.3459 18 13.0046 18 13.8171V22.644C18 23.4565 17.3026 24.1152 16.4423 24.1152C15.582 24.1152 14.8846 23.4565 14.8846 22.644V13.8171C14.8846 13.0046 15.582 12.3459 16.4423 12.3459Z" fill="white"/>
<path fill-rule="evenodd" clip-rule="evenodd" d="M0 7.67293C0 6.81264 0.671573 6.11523 1.5 6.11523H25.5C26.3284 6.11523 27 6.81264 27 7.67293C27 8.53322 26.3284 9.23062 25.5 9.23062H1.5C0.671573 9.23062 0 8.53322 0 7.67293Z" fill="white"/>
<path fill-rule="evenodd" clip-rule="evenodd" d="M3.11536 7.60802C3.11536 6.78358 3.77955 6.11523 4.59887 6.11523H22.4011C23.2204 6.11523 23.8846 6.78358 23.8846 7.60802V24.0287C23.8846 27.3265 21.2279 29.9998 17.9505 29.9998H9.04942C5.77215 29.9998 3.11536 27.3266 3.11536 24.0287V7.60802ZM6.08239 9.10081V24.0287C6.08239 25.6776 7.41076 27.0143 9.04942 27.0143H17.9505C19.5892 27.0143 20.9176 25.6777 20.9176 24.0287V9.10081H6.08239Z" fill="white"/>
<path fill-rule="evenodd" clip-rule="evenodd" d="M12.0288 3.23071C11.2163 3.23071 10.5577 3.90229 10.5577 4.73071V6.23071H16.4423V4.73071C16.4423 3.90227 15.7837 3.23071 14.9711 3.23071H12.0288ZM7.61536 4.73071C7.61536 2.24543 9.59133 0.230713 12.0288 0.230713H14.9711C17.4087 0.230713 19.3846 2.24545 19.3846 4.73071V7.73071C19.3846 8.55914 18.7259 9.23071 17.9134 9.23071H9.08651C8.27401 9.23071 7.61536 8.55914 7.61536 7.73071V4.73071Z" fill="white"/>
</svg>
